<?xml version="1.0" encoding="utf-8"?>
<!-- Generator: Adobe Illustrator 22.1.0, SVG Export Plug-In . SVG Version: 6.00 Build 0)  -->
<svg version="1.1" id="Layer_1" xmlns="http://www.w3.org/2000/svg" xmlns:xlink="http://www.w3.org/1999/xlink" x="0px" y="0px"
	 viewBox="0 0 512 512" style="enable-background:new 0 0 512 512;" xml:space="preserve">
<style type="text/css">
	.st0{fill:#425717;}
	.st1{fill:#F8F8F9;}
</style>
<circle class="st0" cx="254" cy="262" r="181"/>
<path class="st1" d="M300.5,256.5c0,25.5-20.8,46.2-46.5,46.2s-46.5-20.7-46.5-46.2s20.8-46.2,46.5-46.2S300.5,231,300.5,256.5z"/>
<path class="st1" d="M362.8,174.7c-2.2-6-5.8-11.5-10.4-15.9c-4.5-4.6-10-8.2-16-10.4c-4.9-1.9-12.3-4.2-25.9-4.8
	c-14.7-0.7-19.1-0.8-56.4-0.8c-37.3,0-41.7,0.1-56.4,0.8c-13.6,0.6-21,2.9-25.9,4.8c-6.1,2.2-11.5,5.8-16,10.4
	c-4.6,4.5-8.2,9.9-10.4,15.9c-1.9,4.9-4.2,12.2-4.8,25.8c-0.7,14.6-0.8,19-0.8,56c0,37,0.1,41.4,0.8,56c0.6,13.5,2.9,20.9,4.8,25.7
	c2.2,6,5.8,11.5,10.4,15.9c4.5,4.6,10,8.2,16,10.4c4.9,1.9,12.3,4.2,25.9,4.8c14.7,0.7,19.1,0.8,56.4,0.8c37.3,0,41.7-0.1,56.4-0.8
	c13.6-0.6,21-2.9,25.9-4.8c12.2-4.7,21.8-14.2,26.5-26.3c1.9-4.9,4.2-12.2,4.8-25.7c0.7-14.6,0.8-19,0.8-56c0-37-0.1-41.4-0.8-56
	C367,186.9,364.7,179.6,362.8,174.7z M254,327.7c-39.6,0-71.7-31.9-71.7-71.2s32.1-71.2,71.7-71.2c39.6,0,71.7,31.9,71.7,71.2
	S293.6,327.7,254,327.7z M328.5,199.1c-9.2,0-16.7-7.5-16.7-16.6s7.5-16.6,16.7-16.6s16.7,7.5,16.7,16.6
	C345.2,191.7,337.7,199.1,328.5,199.1z"/>
<path class="st1" d="M254,15C119.8,15,11,123.1,11,256.5S119.8,498,254,498s243-108.1,243-241.5S388.2,15,254,15z M392.7,313.7
	c-0.7,14.8-3,24.8-6.5,33.7c-7.2,18.6-22.1,33.4-40.8,40.6c-8.9,3.4-19,5.8-33.9,6.4c-14.9,0.7-19.6,0.8-57.5,0.8
	c-37.9,0-42.6-0.2-57.5-0.8c-14.9-0.7-25-3-33.9-6.4c-9.3-3.5-17.7-8.9-24.7-16c-7.1-6.9-12.6-15.3-16.1-24.6
	c-3.4-8.8-5.8-18.9-6.5-33.7c-0.7-14.8-0.8-19.5-0.8-57.2s0.2-42.4,0.8-57.2c0.7-14.8,3-24.8,6.5-33.7c3.5-9.3,9-17.6,16.1-24.6
	c7-7.1,15.4-12.5,24.7-16c8.9-3.4,19-5.8,33.9-6.4c14.9-0.7,19.6-0.8,57.5-0.8s42.6,0.2,57.5,0.8c14.9,0.7,25,3,33.9,6.4
	c9.3,3.5,17.7,8.9,24.7,16c7.1,6.9,12.6,15.3,16.1,24.6c3.5,8.8,5.8,18.9,6.5,33.7c0.7,14.8,0.8,19.5,0.8,57.2
	S393.4,298.9,392.7,313.7z"/>
</svg>
